<svg width="24" height="25" viewBox="0 0 24 25" fill="none" xmlns="http://www.w3.org/2000/svg">
<path d="M14.5581 14.0577C13.9186 15.1361 12.6763 15.7036 11.4425 15.481C10.2087 15.2585 9.24295 14.2928 9.02042 13.059C8.79789 11.8251 9.36538 10.5829 10.4437 9.94333" stroke="#9B9B9B" stroke-linecap="round" stroke-linejoin="round"/>
<path d="M17.9966 17.4962C16.2718 18.8044 14.1648 19.5095 12 19.5029C8.41291 19.5668 5.09856 17.5953 3.44245 14.4128C2.84755 13.207 2.84755 11.793 3.44245 10.5872C4.2707 8.93782 5.591 7.58656 7.22074 6.72031" stroke="#9B9B9B" stroke-linecap="round" stroke-linejoin="round"/>
<path d="M20.4272 14.6345C20.4674 14.5585 20.5196 14.4903 20.5576 14.4128C21.1524 13.207 21.1524 11.793 20.5576 10.5872C18.9015 7.40462 15.5871 5.4332 12 5.49708C11.7751 5.49708 11.5565 5.52709 11.3345 5.54172" stroke="#9B9B9B" stroke-linecap="round" stroke-linejoin="round"/>
<path d="M21.0037 20.5033L3.99664 3.49625" stroke="#9B9B9B" stroke-linecap="round" stroke-linejoin="round"/>
</svg>
