<svg width="16" height="17" viewBox="0 0 16 17" fill="none" xmlns="http://www.w3.org/2000/svg">
<path d="M2 10.5V9.83334C1.99021 9.29997 2.19778 8.78555 2.57499 8.40834C2.95221 8.03112 3.46662 7.82355 3.99999 7.83334H5.99999C6.53337 7.82355 7.04778 8.03112 7.42499 8.40834C7.80221 8.78555 8.00978 9.29997 7.99999 9.83334V10.5" stroke="white" stroke-linecap="round" stroke-linejoin="round"/>
<path d="M10.6667 7.83334H12C12.5334 7.82355 13.0478 8.03112 13.425 8.40834C13.8022 8.78555 14.0098 9.29997 14 9.83334V10.5" stroke="white" stroke-linecap="round" stroke-linejoin="round"/>
<ellipse cx="5.00001" cy="4.16667" rx="1.66667" ry="1.66667" stroke="white" stroke-linecap="round" stroke-linejoin="round"/>
<ellipse cx="11.3333" cy="4.49999" rx="1.33333" ry="1.33333" stroke="white" stroke-linecap="round" stroke-linejoin="round"/>
<path d="M12 12.1667H10.2721" stroke="white" stroke-linecap="round" stroke-linejoin="round"/>
<path d="M12 13.8707V12.1667" stroke="white" stroke-linecap="round" stroke-linejoin="round"/>
<path d="M4 12.199C4.77227 13.6173 6.25803 14.5 7.87295 14.5C9.48788 14.5 10.9736 13.6173 11.7459 12.199" stroke="white" stroke-linecap="round" stroke-linejoin="round"/>
</svg>
