<svg width="24" height="25" viewBox="0 0 24 25" fill="none" xmlns="http://www.w3.org/2000/svg">
<path fill-rule="evenodd" clip-rule="evenodd" d="M15.1062 2.5H8.89375C8.23125 2.5 7.595 2.76375 7.12625 3.2325L2.7325 7.62625C2.26375 8.095 2 8.73 2 9.39375V15.6075C2 16.27 2.26375 16.9062 2.7325 17.375L7.12625 21.7687C7.595 22.2362 8.23 22.5 8.89375 22.5H15.1075C15.77 22.5 16.4062 22.2362 16.875 21.7675L21.2687 17.3738C21.7362 16.905 22 16.27 22 15.6062V9.39375C22 8.73125 21.7362 8.095 21.2675 7.62625L16.8738 3.2325C16.405 2.76375 15.77 2.5 15.1062 2.5Z" fill="#838383" stroke="#838383" stroke-linecap="round" stroke-linejoin="round"/>
<path fill-rule="evenodd" clip-rule="evenodd" d="M15.182 9.31802C16.9393 11.0754 16.9393 13.9246 15.182 15.682C13.4246 17.4393 10.5754 17.4393 8.81802 15.682C7.06066 13.9246 7.06066 11.0754 8.81802 9.31802C10.5754 7.56066 13.4246 7.56066 15.182 9.31802Z" fill="#111111"/>
<path d="M15.182 9.31802C16.9393 11.0754 16.9393 13.9246 15.182 15.682C13.4246 17.4393 10.5754 17.4393 8.81802 15.682C7.06066 13.9246 7.06066 11.0754 8.81802 9.31802C10.5754 7.56066 13.4246 7.56066 15.182 9.31802" stroke="#838383" stroke-linecap="round" stroke-linejoin="round"/>
</svg>
